<svg width="406" height="306" viewBox="0 0 406 306" fill="none" xmlns="http://www.w3.org/2000/svg">
<g id="palette 1">
<circle id="Ellipse 1" cx="203.5" cy="153.5" r="135.5" fill="#D9D9D9"/>
<g id="Designer _Outline 1">
<g id="#232_designer_outline">
<g id="brush">
<path id="Vector" d="M143.156 107.452L125.926 113.905L133.777 135.58L151.007 129.126L143.156 107.452Z" fill="#68E1FD"/>
<path id="Vector_2" d="M133.797 137.8C133.348 137.801 132.909 137.663 132.54 137.403C132.17 137.143 131.888 136.775 131.73 136.346L123.88 114.657C123.682 114.099 123.71 113.485 123.957 112.948C124.205 112.412 124.651 111.997 125.2 111.795L142.417 105.333C142.953 105.109 143.553 105.109 144.088 105.333C144.618 105.58 145.029 106.03 145.232 106.585L153.082 128.274C153.281 128.829 153.257 129.441 153.014 129.977C152.771 130.513 152.329 130.93 151.785 131.136L134.567 137.598C134.325 137.712 134.064 137.781 133.797 137.8ZM128.784 115.216L135.095 132.701L148.288 127.783L141.955 110.297L128.784 115.216Z" fill="#093F68"/>
<path id="Vector_3" d="M142.043 107.859C143.261 102.964 142.567 97.7794 140.108 93.3923C133.511 81.4743 127.245 96.724 120.56 73.268C120.56 73.268 111.412 87.1538 115.172 98.4905C119.262 110.945 127.882 113.248 127.882 113.248L142.043 107.859Z" fill="#FFBC0E"/>
<path id="Vector_4" d="M127.816 115.395C127.634 115.418 127.449 115.418 127.267 115.395C126.849 115.395 117.437 112.622 113.017 99.1836C108.971 86.9302 118.273 72.5972 118.669 71.9936C118.905 71.6344 119.238 71.3525 119.628 71.1819C120.018 71.0112 120.449 70.9592 120.868 71.032C121.279 71.1002 121.662 71.2856 121.973 71.5666C122.285 71.8476 122.511 72.2128 122.627 72.6196C126.167 85.0296 129.224 85.365 132.324 85.7227C134.395 85.7858 136.406 86.4511 138.116 87.64C139.827 88.8289 141.167 90.4915 141.977 92.4308C144.774 97.3399 145.564 103.169 144.176 108.664C144.078 108.989 143.908 109.287 143.679 109.535C143.451 109.783 143.169 109.975 142.857 110.095L128.696 115.395C128.405 115.451 128.107 115.451 127.816 115.395ZM119.988 78.724C117.789 83.442 115.018 91.1563 117.173 97.7079C120.252 107.032 125.969 110.028 127.794 110.789L140.108 106.16C140.798 102.146 140.099 98.0139 138.129 94.4656C137.67 93.1427 136.813 91.9996 135.681 91.1975C134.549 90.3952 133.198 89.9742 131.818 89.9936C127.398 89.5911 123.594 88.3389 120.054 78.724H119.988Z" fill="#093F68"/>
<path id="Vector_5" d="M135.535 134.915C138.635 145.939 142.769 158.774 147.695 172.346C157.48 199.403 167.771 222.165 174.588 232.719L181.998 229.947C180.415 217.38 173.73 193.275 163.923 166.22C158.997 152.647 153.962 140.148 149.3 129.705L135.535 134.915Z" fill="#AD7972"/>
<path id="Vector_6" d="M174.588 235C174.222 235.002 173.861 234.911 173.539 234.735C173.216 234.559 172.942 234.305 172.741 233.994C165.572 222.813 155.149 199.514 145.628 173.129C140.856 159.982 136.634 146.968 133.424 135.541C133.266 134.999 133.317 134.415 133.566 133.909C133.815 133.402 134.243 133.011 134.765 132.814L148.53 127.648C149.054 127.452 149.631 127.464 150.146 127.684C150.66 127.904 151.073 128.315 151.301 128.833C156.161 139.678 161.24 152.356 165.99 165.504C175.555 191.889 182.526 216.485 184.175 229.701C184.223 230.185 184.113 230.673 183.863 231.089C183.613 231.504 183.236 231.826 182.79 232.004L175.358 234.799C175.115 234.913 174.854 234.981 174.588 235ZM138.217 136.302C141.318 147.147 145.298 159.288 149.762 171.586C158.799 196.54 168.54 218.543 175.489 230.036L179.579 228.515C177.601 215.233 170.916 192.001 161.856 167.047C157.458 154.749 152.686 142.898 148.135 132.567L138.217 136.302Z" fill="#093F68"/>
</g>
<path id="Vector_7" d="M282.64 111.336C265.797 104.874 231.801 100.648 202.489 131.013C173.177 161.378 183.138 198.094 214.099 212.583C245.06 227.073 271.536 220.096 277.671 200.419C283.806 180.742 263.268 179.221 271.646 168.846C280.024 158.471 290.49 170.121 299.353 153.664C308.214 137.207 299.528 117.798 282.64 111.336Z" fill="white"/>
<path id="Vector_8" d="M245.478 222.556C234.283 222.295 223.273 219.588 213.198 214.618C197.189 207.105 186.371 193.756 183.534 178.037C180.543 161.423 186.745 144.161 200.949 129.448C227.865 101.542 261.223 100.715 283.454 109.323C287.923 111.001 291.987 113.633 295.37 117.043C298.754 120.452 301.379 124.561 303.069 129.09C304.612 133.261 305.243 137.726 304.916 142.17C304.59 146.615 303.314 150.934 301.177 154.826C295.658 165.112 288.995 165.604 283.586 166.007C279.496 166.297 276.264 166.543 273.229 170.345C270.634 173.587 271.536 174.973 274.768 178.931C278.418 183.403 283.388 189.507 279.76 201.291C278.485 205.301 276.365 208.979 273.547 212.069C270.728 215.159 267.28 217.586 263.444 219.179C257.751 221.562 251.632 222.712 245.478 222.556ZM257.33 108.966C240.113 108.966 220.806 115.249 204.094 132.578C190.901 146.24 185.139 162.094 187.866 177.299C190.438 191.587 200.356 203.728 215.045 210.638C232.637 218.844 249.568 220.431 261.728 214.976C264.986 213.626 267.915 211.571 270.312 208.953C272.708 206.335 274.514 203.216 275.604 199.815C278.529 190.446 274.922 186.041 271.426 181.77C268.347 178.014 264.829 173.743 269.864 167.505C274.109 162.205 278.99 161.848 283.322 161.512C288.49 161.132 292.954 160.819 297.329 152.568C299.152 149.235 300.242 145.54 300.523 141.738C300.804 137.935 300.269 134.116 298.957 130.543C297.482 126.612 295.195 123.047 292.252 120.088C289.309 117.13 285.776 114.847 281.893 113.393C274.032 110.436 265.713 108.936 257.33 108.966Z" fill="#093F68"/>
<path id="Vector_9" d="M233.45 123.79C233.626 124.662 234.066 125.467 234.242 126.34C234.275 127.523 234 128.696 233.444 129.736C232.887 130.777 232.07 131.649 231.075 132.265C229.056 133.463 227.28 135.042 225.841 136.916C225.061 138.527 224.873 140.368 225.313 142.107C225.753 143.847 226.791 145.369 228.238 146.397C229.725 147.367 231.426 147.947 233.188 148.083C234.95 148.22 236.717 147.909 238.332 147.18C241.762 145.748 245.412 142.864 248.71 144.541C249.87 145.327 250.933 146.25 251.877 147.291C254.01 148.999 256.704 149.81 259.407 149.561C262.11 149.312 264.617 148.02 266.412 145.949C268.096 143.777 269.011 141.091 269.011 138.325C269.011 135.559 268.096 132.873 266.412 130.7C261.75 124.841 265.665 115.048 255.571 114.108C250.382 113.594 232.065 115.987 233.45 123.79Z" fill="#FFBC0E"/>
<path id="Vector_10" d="M258.254 151.853C255.385 151.902 252.598 150.875 250.426 148.968C250.053 148.649 249.7 148.305 249.37 147.94C248.898 147.398 248.35 146.931 247.743 146.554C246.292 145.815 244.423 146.554 241.762 148.006C240.883 148.454 240.025 148.879 239.167 149.237C237.213 150.119 235.071 150.49 232.939 150.314C230.807 150.138 228.753 149.422 226.963 148.23C225.057 146.882 223.7 144.874 223.145 142.581C222.59 140.288 222.877 137.869 223.95 135.776C225.116 134.005 226.656 132.523 228.458 131.437L229.756 130.498C231.031 129.515 232.307 128.017 232.065 126.742C232.003 126.434 231.907 126.134 231.779 125.848C231.574 125.318 231.413 124.772 231.295 124.215C231.09 123.144 231.146 122.039 231.456 120.995C231.767 119.951 232.322 118.999 233.076 118.223C238.068 112.677 251.987 111.515 255.725 111.895C263.663 112.7 264.785 118.29 265.687 122.762C265.959 125.106 266.773 127.351 268.062 129.314C270.065 131.888 271.154 135.075 271.154 138.358C271.154 141.641 270.065 144.828 268.062 147.403C265.825 150.016 262.663 151.623 259.266 151.875L258.254 151.853ZM246.578 141.791C247.663 141.787 248.734 142.048 249.7 142.551C250.746 143.133 251.691 143.889 252.493 144.787C252.755 145.079 253.034 145.356 253.328 145.614C254.102 146.269 254.997 146.76 255.96 147.059C256.922 147.359 257.934 147.46 258.936 147.358C260.04 147.298 261.121 147.016 262.118 146.529C263.114 146.041 264.006 145.358 264.741 144.518C266.079 142.73 266.794 140.541 266.774 138.294C266.754 136.048 266 133.872 264.631 132.108C262.878 129.607 261.76 126.703 261.377 123.656C260.453 119.05 259.816 116.792 255.286 116.345C251.459 115.942 239.717 117.463 236.33 121.241C236.017 121.509 235.783 121.859 235.655 122.254C235.527 122.649 235.51 123.073 235.605 123.477C235.68 123.789 235.776 124.095 235.891 124.394C236.102 124.924 236.271 125.469 236.397 126.027C236.556 127.627 236.268 129.241 235.563 130.681C234.859 132.122 233.768 133.329 232.416 134.166L230.965 135.216C229.703 135.961 228.609 136.966 227.755 138.168C227.244 139.293 227.141 140.565 227.463 141.759C227.784 142.954 228.511 143.994 229.514 144.697C230.702 145.438 232.051 145.872 233.442 145.962C234.833 146.051 236.225 145.794 237.496 145.212C238.266 144.899 239.014 144.518 239.695 144.116C241.783 142.814 244.139 142.018 246.578 141.791Z" fill="#093F68"/>
<path id="Vector_11" d="M278.242 138.191C276.518 140.018 275.442 142.379 275.186 144.899C275.093 145.752 275.195 146.616 275.485 147.423C275.775 148.23 276.245 148.958 276.857 149.55C277.938 150.334 279.246 150.728 280.573 150.667C283.998 150.539 287.29 149.293 289.963 147.112C293.481 144.362 299.353 136.581 293.899 132.846C288.929 129.604 281.387 134.613 278.242 138.191Z" fill="#1D9CFC"/>
<path id="Vector_12" d="M280.551 152.971C278.727 153.039 276.935 152.471 275.472 151.361C274.579 150.55 273.889 149.535 273.456 148.4C273.025 147.265 272.863 146.042 272.987 144.831C273.262 141.781 274.54 138.913 276.615 136.692C280.551 132.22 289.04 126.921 295.108 131.058C296.065 131.664 296.86 132.502 297.42 133.497C297.98 134.492 298.29 135.613 298.319 136.76C298.451 141.567 294.075 146.777 291.282 148.946C288.233 151.443 284.465 152.857 280.551 152.971ZM279.782 139.711C278.369 141.172 277.491 143.082 277.297 145.122C277.24 145.63 277.296 146.144 277.46 146.628C277.623 147.112 277.891 147.552 278.242 147.917C278.94 148.357 279.754 148.568 280.573 148.521C283.522 148.429 286.356 147.335 288.621 145.413C290.82 143.691 294.009 139.689 293.921 136.916C293.914 136.484 293.794 136.062 293.574 135.693C293.354 135.323 293.041 135.02 292.668 134.814C289.325 132.578 282.97 136.268 279.87 139.733L279.782 139.711Z" fill="#093F68"/>
<path id="Vector_13" d="M205.897 148.029C201.851 149.505 197.871 152.724 197.981 156.839C198.249 158.819 198.623 160.782 199.103 162.72C199.718 167.483 197.123 172.849 199.74 176.829C200.698 177.99 201.897 178.923 203.25 179.561C204.603 180.198 206.077 180.525 207.569 180.518C211.966 180.899 217.156 179.736 219.333 175.778C219.653 174.919 220.173 174.151 220.85 173.542C221.573 173.169 222.37 172.97 223.181 172.961C224.573 172.737 225.885 172.153 226.99 171.264C228.096 170.375 228.957 169.211 229.492 167.885C231.229 163.413 228.173 158.628 225.094 155.475C221.444 151.629 215.771 147.09 210.251 147.135C208.763 147.2 207.293 147.501 205.897 148.029Z" fill="#F56132"/>
<path id="Vector_14" d="M209.24 182.822H207.393C205.566 182.822 203.763 182.4 202.121 181.586C200.479 180.772 199.041 179.589 197.915 178.126C195.848 174.973 196.288 171.418 196.684 168.131C196.966 166.463 197.047 164.766 196.926 163.078C196.815 162.384 196.639 161.646 196.441 160.841C196.069 159.569 195.847 158.255 195.782 156.929C195.65 151.406 200.751 147.582 205.172 145.972C206.821 145.353 208.559 145.013 210.317 144.966C217.09 144.966 223.511 150.6 226.677 153.91C231.471 158.986 233.164 164.218 231.449 168.712C230.775 170.403 229.681 171.887 228.274 173.02C226.867 174.152 225.196 174.894 223.423 175.174H222.873C222.567 175.189 222.265 175.242 221.972 175.331C221.775 175.596 221.606 175.881 221.466 176.181C221.466 176.382 221.268 176.583 221.158 176.784C219.157 180.675 214.737 182.822 209.24 182.822ZM210.405 149.281C209.144 149.331 207.897 149.58 206.711 150.019C203.435 151.227 200.114 153.731 200.246 156.727C200.306 157.712 200.476 158.688 200.751 159.634C201.013 160.535 201.212 161.454 201.346 162.384C201.527 164.443 201.453 166.516 201.125 168.556C200.773 171.351 200.488 173.766 201.653 175.532C202.433 176.4 203.385 177.09 204.446 177.556C205.508 178.023 206.654 178.255 207.81 178.238C211.351 178.551 215.771 177.746 217.486 174.638L217.706 174.19C218.135 173.173 218.826 172.293 219.707 171.642C220.562 171.125 221.528 170.826 222.521 170.769H222.939C223.949 170.605 224.9 170.179 225.701 169.533C226.501 168.887 227.125 168.042 227.513 167.08C228.986 163.234 225.314 158.784 223.665 157.04C221.422 154.737 215.748 149.393 210.405 149.393V149.281Z" fill="#093F68"/>
<path id="Vector_15" d="M226.061 193.935C226.193 195.356 226.62 196.733 227.313 197.974C228.007 199.216 228.952 200.292 230.086 201.135C232.362 202.802 234.964 203.953 237.716 204.511C244.884 206.246 252.382 205.952 259.397 203.662C260.693 203.315 261.891 202.664 262.894 201.761C263.801 200.622 264.296 199.201 264.296 197.736C264.296 196.27 263.801 194.85 262.894 193.711C261.017 191.477 258.577 189.807 255.835 188.881C250.844 186.78 250.272 178.551 243.389 178.327C240.421 178.327 238.749 180.273 236.793 182.196C233.626 185.326 233.494 184.879 229.228 184.901C225.468 184.923 225.93 191.453 226.061 193.935Z" fill="#70CC40"/>
<path id="Vector_16" d="M247.062 207.843C243.746 207.845 240.441 207.463 237.21 206.702C234.148 206.082 231.258 204.785 228.744 202.901C227.347 201.854 226.188 200.513 225.345 198.97C224.503 197.427 223.997 195.717 223.863 193.957V193.644C223.731 191.162 223.467 186.511 225.732 184.074C226.171 183.591 226.706 183.208 227.301 182.95C227.896 182.692 228.537 182.564 229.184 182.576H230.592C233.098 182.576 233.098 182.576 235.253 180.496L235.869 179.87C236.776 178.703 237.923 177.752 239.23 177.084C240.536 176.416 241.971 176.047 243.433 176.002C248.534 176.158 250.931 179.758 252.867 182.71C253.735 184.389 255.044 185.79 256.649 186.757C259.766 187.836 262.535 189.761 264.653 192.324C265.864 193.895 266.507 195.84 266.475 197.835C266.443 199.83 265.738 201.752 264.477 203.281C263.239 204.465 261.726 205.312 260.079 205.741C255.876 207.137 251.483 207.847 247.062 207.843ZM229.184 187.137C229.139 187.117 229.09 187.106 229.041 187.106C228.992 187.106 228.943 187.117 228.898 187.137C228.282 187.83 228.041 189.932 228.238 193.398V193.733C228.353 194.832 228.694 195.894 229.239 196.85C229.785 197.806 230.523 198.633 231.405 199.279C233.432 200.757 235.75 201.772 238.2 202.252C244.976 203.88 252.061 203.602 258.694 201.448C259.654 201.205 260.549 200.747 261.311 200.106C261.824 199.334 262.079 198.414 262.035 197.483C261.991 196.552 261.652 195.66 261.069 194.941C259.402 193.056 257.279 191.645 254.912 190.849C252.488 189.575 250.491 187.598 249.173 185.17C247.281 182.307 245.962 180.563 243.235 180.474C241.674 180.474 240.597 181.368 238.838 183.068L238.178 183.716C235.011 186.824 234.044 187.07 230.416 187.048L229.184 187.137Z" fill="#093F68"/>
</g>
</g>
</g>
</svg>
