<svg width="406" height="306" viewBox="0 0 406 306" fill="none" xmlns="http://www.w3.org/2000/svg">
<g id="Designer _Outline 1">
<g id="#232_designer_outline">
<g id="brush">
<path id="Vector" d="M61.173 73.4565L32.8735 83.8051L45.7685 118.564L74.068 108.215L61.173 73.4565Z" fill="#68E1FD"/>
<path id="Vector_2" d="M45.802 122.124C45.064 122.126 44.343 121.904 43.7361 121.488C43.1291 121.071 42.6652 120.48 42.407 119.793L29.5131 85.0108C29.1878 84.1168 29.2333 83.1312 29.6397 82.2706C30.046 81.4099 30.7799 80.7446 31.6801 80.421L59.96 70.0579C60.8393 69.6993 61.8256 69.6993 62.7049 70.0579C63.574 70.454 64.2494 71.1762 64.583 72.066L77.477 106.848C77.8041 107.738 77.7636 108.72 77.3644 109.579C76.9652 110.439 76.2396 111.108 75.346 111.438L47.0661 121.801C46.668 121.984 46.2396 122.094 45.802 122.124V122.124ZM37.5672 85.9073L47.9329 113.948L69.6033 106.06L59.2015 78.0185L37.5672 85.9073Z" fill="#093F68"/>
<path id="Vector_3" d="M59.3459 74.1099C61.3452 66.2592 60.2061 57.9449 56.1676 50.9096C45.3323 31.7971 35.0389 56.2525 24.0592 18.6371C24.0592 18.6371 9.03439 40.9051 15.2105 59.0853C21.9283 79.0583 36.0863 82.7517 36.0863 82.7517L59.3459 74.1099Z" fill="#FFBC0E"/>
<path id="Vector_4" d="M35.978 86.1942C35.6782 86.2317 35.3749 86.2317 35.0751 86.1942C34.3889 86.1942 18.9306 81.7477 11.671 60.1969C5.02544 40.5466 20.3031 17.5614 20.9532 16.5933C21.3409 16.0174 21.8883 15.5653 22.5292 15.2916C23.1702 15.018 23.8772 14.9345 24.5649 15.0513C25.2399 15.1606 25.8698 15.4579 26.3813 15.9086C26.8928 16.3593 27.2649 16.9449 27.4543 17.5973C33.2692 37.4986 38.2895 38.0365 43.3821 38.6102C46.7841 38.7113 50.0857 39.7783 52.8958 41.6849C55.7059 43.5914 57.9067 46.2576 59.2376 49.3677C63.8315 57.2401 65.1284 66.5885 62.8494 75.4008C62.6876 75.9217 62.4084 76.3991 62.0328 76.7968C61.6573 77.1945 61.1954 77.5019 60.6823 77.6957L37.4227 86.1942C36.9454 86.2843 36.4553 86.2843 35.978 86.1942V86.1942ZM23.1202 27.3866C19.5085 34.9527 14.9577 47.3238 18.4972 57.8303C23.5537 72.7832 32.9442 77.5881 35.9419 78.8073L56.1676 71.3847C57.3007 64.9483 56.152 58.321 52.9171 52.6308C52.1618 50.5093 50.7555 48.6762 48.896 47.3898C47.0366 46.1033 44.8176 45.4281 42.5514 45.4592C35.2918 44.8137 29.0435 42.8056 23.2286 27.3866H23.1202Z" fill="#093F68"/>
<path id="Vector_5" d="M48.6552 117.498C53.7477 135.177 60.5378 155.759 68.6281 177.525C84.7003 220.914 101.603 257.417 112.8 274.342L124.971 269.896C122.371 249.744 111.391 211.088 95.2827 167.7C87.1924 145.934 78.9216 125.889 71.2647 109.143L48.6552 117.498Z" fill="#AD7972"/>
<path id="Vector_6" d="M112.8 278C112.199 278.003 111.606 277.857 111.077 277.575C110.547 277.293 110.096 276.885 109.766 276.386C97.9915 258.457 80.8719 221.093 65.2331 178.78C57.3956 157.696 50.4611 136.826 45.1879 118.502C44.9292 117.632 45.0128 116.696 45.4216 115.884C45.8305 115.072 46.5343 114.445 47.3911 114.128L70.0005 105.844C70.8604 105.529 71.809 105.549 72.6541 105.902C73.4991 106.255 74.1774 106.914 74.5513 107.745C82.5333 125.136 90.8764 145.468 98.6778 166.552C114.389 208.865 125.838 248.309 128.547 269.502C128.625 270.279 128.445 271.061 128.034 271.728C127.623 272.394 127.004 272.91 126.271 273.195L114.064 277.677C113.666 277.86 113.237 277.97 112.8 278V278ZM53.0615 119.722C58.154 137.113 64.6913 156.584 72.0231 176.306C86.8674 216.324 102.867 251.608 114.28 270.039L120.998 267.601C117.748 246.301 106.768 209.045 91.8877 169.027C84.6642 149.305 76.8268 130.3 69.3505 113.733L53.0615 119.722Z" fill="#093F68"/>
</g>
<path id="Vector_7" d="M290.274 79.6848C262.609 69.3217 206.771 62.5445 158.627 111.24C110.482 159.936 126.843 218.815 177.697 242.051C228.55 265.287 272.035 254.099 282.112 222.544C292.189 190.989 258.455 188.55 272.216 171.912C285.977 155.274 303.168 173.956 317.724 147.564C332.279 121.173 318.013 90.0478 290.274 79.6848Z" fill="white"/>
<path id="Vector_8" d="M229.236 258.044C210.848 257.625 192.765 253.284 176.216 245.314C149.922 233.266 132.153 211.858 127.493 186.65C122.581 160.007 132.767 132.325 156.098 108.73C200.306 63.9789 255.096 62.6522 291.611 76.4576C298.951 79.1472 305.626 83.3684 311.183 88.8366C316.741 94.3049 321.053 100.893 323.828 108.156C326.363 114.846 327.399 122.005 326.862 129.133C326.326 136.261 324.23 143.187 320.721 149.429C311.656 165.924 300.712 166.713 291.828 167.358C285.11 167.824 279.801 168.219 274.816 174.315C270.554 179.514 272.035 181.737 277.345 188.084C283.34 195.256 291.503 205.045 285.543 223.943C283.45 230.373 279.967 236.272 275.338 241.227C270.709 246.182 265.046 250.074 258.744 252.629C249.394 256.45 239.344 258.294 229.236 258.044V258.044ZM248.703 75.8839C220.424 75.8839 188.712 85.96 161.263 113.75C139.593 135.66 130.13 161.083 134.609 185.467C138.834 208.38 155.123 227.851 179.25 238.931C208.144 252.091 235.954 254.637 255.927 245.888C261.278 243.724 266.089 240.428 270.025 236.229C273.961 232.031 276.927 227.03 278.717 221.576C283.521 206.551 277.597 199.487 271.855 192.638C266.798 186.614 261.019 179.765 269.29 169.761C276.261 161.262 284.279 160.689 291.394 160.151C299.882 159.541 307.214 159.039 314.401 145.807C317.395 140.463 319.185 134.537 319.646 128.439C320.108 122.341 319.23 116.216 317.074 110.487C314.651 104.182 310.896 98.4649 306.061 93.7209C301.227 88.9768 295.425 85.3157 289.047 82.9838V82.9838C276.135 78.2416 262.471 75.8369 248.703 75.8839V75.8839Z" fill="#093F68"/>
<path id="Vector_9" d="M209.48 99.6578C209.769 101.056 210.491 102.347 210.78 103.746C210.835 105.644 210.383 107.524 209.47 109.193C208.556 110.862 207.214 112.261 205.579 113.248C202.263 115.17 199.346 117.702 196.983 120.707C195.701 123.29 195.393 126.243 196.115 129.032C196.838 131.822 198.542 134.262 200.92 135.911C203.362 137.467 206.156 138.396 209.05 138.615C211.943 138.834 214.846 138.336 217.498 137.166C223.132 134.871 229.128 130.245 234.545 132.934C236.449 134.195 238.195 135.675 239.746 137.345C243.249 140.083 247.675 141.385 252.114 140.985C256.554 140.585 260.671 138.513 263.62 135.193C266.385 131.709 267.889 127.402 267.889 122.966C267.889 118.53 266.385 114.223 263.62 110.738C255.963 101.343 262.392 85.6373 245.814 84.1312C237.29 83.3065 207.205 87.1433 209.48 99.6578Z" fill="#FFBC0E"/>
<path id="Vector_10" d="M250.22 144.66C245.508 144.739 240.93 143.092 237.363 140.034C236.75 139.522 236.171 138.971 235.629 138.385C234.853 137.517 233.953 136.768 232.956 136.162C230.573 134.978 227.503 136.162 223.132 138.492C221.688 139.209 220.279 139.891 218.87 140.465C215.66 141.88 212.143 142.474 208.641 142.192C205.139 141.91 201.765 140.762 198.825 138.851C195.695 136.689 193.465 133.468 192.554 129.792C191.643 126.115 192.114 122.235 193.877 118.878C195.791 116.039 198.321 113.662 201.281 111.921L203.412 110.415C205.507 108.838 207.602 106.435 207.205 104.391C207.103 103.897 206.945 103.416 206.735 102.957C206.399 102.107 206.134 101.232 205.94 100.339V100.339C205.604 98.6219 205.695 96.8491 206.205 95.1746C206.715 93.5 207.628 91.9741 208.866 90.7292C217.065 81.8363 239.927 79.9717 246.067 80.5813C259.105 81.8722 260.947 90.8367 262.428 98.0084C262.875 101.767 264.212 105.367 266.329 108.515C269.619 112.644 271.408 117.755 271.408 123.02C271.408 128.284 269.619 133.395 266.329 137.524C262.655 141.714 257.462 144.292 251.882 144.696L250.22 144.66ZM231.042 128.524C232.825 128.518 234.584 128.936 236.171 129.743C237.889 130.677 239.44 131.889 240.758 133.329C241.188 133.798 241.646 134.241 242.13 134.656C243.401 135.705 244.871 136.493 246.452 136.973C248.033 137.453 249.695 137.616 251.34 137.452C253.153 137.356 254.93 136.903 256.566 136.122C258.202 135.34 259.667 134.245 260.875 132.898C263.072 130.031 264.247 126.52 264.214 122.917C264.181 119.314 262.943 115.825 260.694 112.997C257.815 108.985 255.979 104.329 255.349 99.4427C253.832 92.0559 252.785 88.4342 245.345 87.7171C239.06 87.0716 219.773 89.51 214.211 95.57C213.696 95.9985 213.312 96.5611 213.101 97.1945C212.891 97.828 212.863 98.5073 213.019 99.1559V99.1559C213.143 99.6557 213.3 100.147 213.489 100.626C213.836 101.475 214.114 102.35 214.32 103.244C214.582 105.81 214.108 108.398 212.951 110.708C211.794 113.018 210.002 114.955 207.782 116.296L205.399 117.981C203.326 119.175 201.529 120.787 200.126 122.715C199.287 124.518 199.117 126.558 199.646 128.474C200.174 130.389 201.368 132.058 203.015 133.185C204.967 134.373 207.182 135.069 209.467 135.213C211.752 135.356 214.038 134.944 216.126 134.01C217.39 133.508 218.618 132.898 219.737 132.253C223.167 130.165 227.036 128.889 231.042 128.524Z" fill="#093F68"/>
<path id="Vector_11" d="M283.051 122.751C280.218 125.682 278.452 129.467 278.031 133.508C277.878 134.877 278.046 136.263 278.522 137.557C278.998 138.851 279.77 140.018 280.776 140.967C282.551 142.225 284.7 142.857 286.879 142.759C292.504 142.554 297.912 140.555 302.302 137.058C308.08 132.647 317.724 120.169 308.767 114.18C300.604 108.981 288.216 117.013 283.051 122.751Z" fill="#1D9CFC"/>
<path id="Vector_12" d="M286.843 146.453C283.847 146.562 280.903 145.651 278.5 143.871C277.034 142.571 275.9 140.944 275.19 139.123C274.481 137.303 274.216 135.342 274.419 133.4C274.87 128.508 276.97 123.909 280.378 120.348V120.348C286.843 113.176 300.785 104.678 310.753 111.312C312.325 112.284 313.63 113.628 314.55 115.224C315.47 116.82 315.978 118.617 316.026 120.456C316.243 128.165 309.056 136.52 304.469 139.998C299.461 144.003 293.271 146.27 286.843 146.453ZM285.579 125.189C283.258 127.532 281.817 130.595 281.498 133.867C281.405 134.681 281.497 135.506 281.765 136.282C282.034 137.057 282.473 137.763 283.051 138.349C284.197 139.054 285.534 139.392 286.879 139.317C291.723 139.17 296.377 137.415 300.098 134.333C303.71 131.572 308.947 125.153 308.803 120.707C308.791 120.014 308.594 119.337 308.233 118.745C307.871 118.152 307.357 117.666 306.744 117.336C301.254 113.75 290.816 119.667 285.724 125.225L285.579 125.189Z" fill="#093F68"/>
<path id="Vector_13" d="M164.225 138.528C157.579 140.895 151.042 146.058 151.223 152.656C151.662 155.831 152.277 158.979 153.065 162.087C154.076 169.725 149.814 178.331 154.112 184.714C155.686 186.576 157.655 188.072 159.877 189.094C162.099 190.117 164.521 190.641 166.97 190.63C174.193 191.24 182.717 189.375 186.293 183.028C186.818 181.65 187.673 180.419 188.785 179.442C189.972 178.844 191.282 178.525 192.613 178.51C194.9 178.152 197.055 177.215 198.87 175.789C200.686 174.363 202.101 172.497 202.979 170.37C205.832 163.199 200.812 155.525 195.755 150.469C189.76 144.301 180.442 137.022 171.376 137.094C168.932 137.198 166.518 137.682 164.225 138.528V138.528Z" fill="#F56132"/>
<path id="Vector_14" d="M169.715 194.324H166.681C163.681 194.324 160.719 193.647 158.022 192.342C155.325 191.037 152.963 189.14 151.114 186.793C147.719 181.737 148.442 176.036 149.092 170.765C149.556 168.09 149.689 165.368 149.489 162.661C149.308 161.549 149.019 160.366 148.694 159.075C148.082 157.034 147.718 154.927 147.611 152.8C147.394 143.943 155.773 137.811 163.033 135.229C165.742 134.237 168.597 133.692 171.484 133.616C182.609 133.616 193.155 142.652 198.356 147.959C206.229 156.099 209.01 164.49 206.193 171.697C205.086 174.408 203.289 176.788 200.978 178.605C198.668 180.421 195.923 181.611 193.01 182.06H192.107C191.605 182.084 191.108 182.168 190.627 182.311C190.304 182.736 190.026 183.193 189.796 183.674C189.796 183.996 189.471 184.319 189.29 184.642C186.004 190.881 178.744 194.324 169.715 194.324ZM171.629 140.536C169.557 140.616 167.51 141.015 165.561 141.72V141.72C160.18 143.656 154.726 147.672 154.943 152.477C155.041 154.057 155.32 155.621 155.773 157.139C156.203 158.584 156.529 160.058 156.749 161.549C157.047 164.85 156.926 168.175 156.387 171.446C155.809 175.928 155.34 179.801 157.254 182.634C158.535 184.026 160.099 185.132 161.842 185.88C163.585 186.628 165.468 187 167.367 186.973C173.182 187.475 180.442 186.184 183.259 181.2L183.62 180.482C184.325 178.851 185.46 177.439 186.907 176.395C188.312 175.567 189.898 175.087 191.53 174.996H192.216C193.874 174.733 195.436 174.05 196.752 173.014C198.067 171.977 199.092 170.623 199.728 169.079C202.148 162.912 196.116 155.776 193.408 152.979C189.724 149.286 180.405 140.716 171.629 140.716V140.536Z" fill="#093F68"/>
<path id="Vector_15" d="M197.344 212.145C197.56 214.425 198.261 216.633 199.4 218.623C200.54 220.614 202.092 222.341 203.954 223.692C207.693 226.366 211.967 228.212 216.487 229.106C228.26 231.889 240.576 231.417 252.098 227.744C254.227 227.188 256.194 226.144 257.841 224.696C259.331 222.87 260.144 220.591 260.144 218.241C260.144 215.891 259.331 213.613 257.841 211.787C254.759 208.204 250.751 205.526 246.247 204.041C238.049 200.671 237.11 187.475 225.805 187.116C220.929 187.116 218.184 190.236 214.97 193.32C209.769 198.34 209.552 197.623 202.545 197.658C196.369 197.694 197.128 208.165 197.344 212.145Z" fill="#70CC40"/>
<path id="Vector_16" d="M231.837 234.449C226.391 234.453 220.962 233.84 215.656 232.62C210.626 231.626 205.879 229.545 201.751 226.524C199.456 224.845 197.552 222.695 196.168 220.22C194.785 217.745 193.954 215.003 193.733 212.181V211.679C193.516 207.699 193.083 200.24 196.803 196.332C197.524 195.558 198.403 194.943 199.38 194.529C200.357 194.115 201.411 193.911 202.473 193.929H204.785C208.902 193.929 208.902 193.929 212.442 190.594L213.453 189.59C214.943 187.719 216.827 186.194 218.973 185.123C221.119 184.051 223.476 183.459 225.877 183.387C234.256 183.638 238.193 189.411 241.372 194.144C242.797 196.837 244.948 199.084 247.584 200.635C252.704 202.365 257.251 205.452 260.731 209.563C262.719 212.081 263.776 215.201 263.723 218.4C263.671 221.599 262.512 224.682 260.442 227.134C258.408 229.033 255.923 230.39 253.218 231.078C246.315 233.318 239.099 234.456 231.837 234.449V234.449ZM202.473 201.244C202.399 201.212 202.319 201.195 202.238 201.195C202.158 201.195 202.078 201.212 202.004 201.244C200.992 202.356 200.595 205.727 200.92 211.285V211.822C201.108 213.585 201.668 215.288 202.564 216.82C203.46 218.353 204.672 219.68 206.121 220.715C209.451 223.086 213.258 224.713 217.281 225.484C228.412 228.094 240.048 227.648 250.943 224.194C252.52 223.805 253.989 223.07 255.241 222.042C256.084 220.804 256.502 219.328 256.43 217.835C256.358 216.342 255.802 214.912 254.843 213.759C252.105 210.736 248.619 208.474 244.731 207.197C240.75 205.154 237.469 201.984 235.304 198.089C232.198 193.499 230.031 190.702 225.552 190.559C222.988 190.559 221.218 191.993 218.329 194.718L217.245 195.758C212.044 200.742 210.455 201.137 204.496 201.101L202.473 201.244Z" fill="#093F68"/>
</g>
</g>
</svg>
